<svg width="871" height="985" viewBox="0 0 871 985" fill="none" xmlns="http://www.w3.org/2000/svg">
<path d="M82.4567 195.121C84.4977 193.264 87.4885 192.899 89.9167 194.209C127.294 214.373 198.654 247.322 247.561 281.607C273.795 299.998 282.732 324.96 286.258 348.269C288.003 359.808 288.454 371.168 288.993 381.004C289.547 391.114 290.19 399.306 292.059 405.572C299.818 431.587 316.022 444.42 348.897 465.995C365.305 476.763 394.367 500.145 399.768 539.035C403.63 566.837 395.867 587.952 383.117 602.952C370.531 617.759 353.416 626.242 338.851 629.749C291.503 641.147 259.565 635.666 239.162 621.8C218.736 607.917 211.199 586.531 210.832 569.066C210.756 565.477 213.604 562.506 217.193 562.43C220.782 562.355 223.753 565.204 223.829 568.793C224.128 582.994 230.238 600.017 246.468 611.048C262.722 622.094 290.45 628.03 335.809 617.11C348.244 614.116 362.742 606.851 373.212 594.533C383.517 582.408 390.253 565.023 386.892 540.824C382.294 507.714 357.356 487.096 341.764 476.864C308.969 455.342 288.842 440.272 279.601 409.287C277.22 401.303 276.552 391.557 276.012 381.715C275.458 371.597 275.034 360.988 273.404 350.214C270.18 328.898 262.365 307.861 240.099 292.252C197.726 262.547 138.627 234.132 98.7526 213.543C102.502 224.907 106.713 239.935 109.245 255.378C110.527 263.201 111.596 274.423 113.045 286.874C114.513 299.502 116.41 313.807 119.387 328.446C125.29 357.472 135.27 386.892 153.679 407.021L154.562 407.972L154.817 408.26C161.714 416.508 177.138 425.95 196.646 428.418C215.831 430.845 238.817 426.494 261.113 407.483C263.845 405.154 267.948 405.48 270.277 408.212C272.606 410.943 272.279 415.047 269.548 417.376C244.344 438.865 217.663 444.18 195.014 441.315C172.791 438.504 154.285 427.783 144.973 416.751C123.532 393.903 112.765 361.116 106.648 331.037C103.563 315.864 101.616 301.138 100.132 288.376C98.6266 275.436 97.6331 264.908 96.4157 257.481C92.5179 233.705 84.3611 210.774 80.8444 202.462C79.7694 199.921 80.4158 196.978 82.4567 195.121ZM19.279 41.7391C24.5109 39.1258 30.6767 38.5003 36.6696 40.7508C42.6259 42.9875 47.7362 47.801 51.5456 54.8338C59.0868 68.756 58.4941 81.5748 55.2614 94.5057C53.6827 100.82 51.4231 107.36 49.1755 114.011C48.3842 116.352 47.5874 118.729 46.8024 121.157C53.0933 126.576 60.7362 131.977 70.0475 137.281C79.6742 142.765 94.9178 150.006 114.087 159.263C133.126 168.459 155.752 179.512 179.731 192.46C227.622 218.32 281.275 251.928 322.94 293.847C325.471 296.394 325.459 300.509 322.913 303.04C320.367 305.57 316.251 305.558 313.72 303.012C273.386 262.431 221.039 229.539 173.554 203.899C149.846 191.097 127.44 180.149 108.433 170.97C89.5554 161.852 73.7362 154.343 63.613 148.577C55.715 144.078 48.8328 139.45 42.8347 134.724C42.7684 134.984 42.7017 135.244 42.6364 135.506C34.9982 166.059 36.1491 183.474 47.2165 241.716C52.7723 270.953 63.9626 333.407 67.7282 390.276C69.3504 414.776 69.6153 438.552 67.36 458.308C67.4983 458.423 67.6384 458.536 67.7761 458.652C85.6994 473.802 98.3556 504.209 96.8278 554.627C96.7188 558.215 93.7215 561.035 90.1335 560.927C86.5453 560.818 83.7249 557.82 83.8337 554.232C85.106 512.245 76.0563 487.43 64.8122 474.058C63.0685 482.011 60.668 489.155 57.3932 495.023C53.1903 502.555 47.2464 508.477 39.03 510.703C22.842 515.087 9.00918 507.222 3.09247 495.119C-2.87008 482.922 -0.589104 467.001 13.2565 455.864C24.0975 447.144 40.0221 444.45 55.0436 450.773C56.5054 433.401 56.1927 412.825 54.7565 391.136C51.0466 335.106 39.9874 273.309 34.445 244.142C23.316 185.576 21.6625 165.8 30.0241 132.353C30.6429 129.878 31.2991 127.475 31.9753 125.142C27.5036 120.695 23.7035 116.18 20.4802 111.616C11.3831 98.734 7.08677 85.7843 4.92938 73.5594C2.45112 59.5159 8.94328 46.9019 19.279 41.7391ZM53.4059 464.418C41.5573 457.788 29.0984 459.805 21.404 465.994C12.2498 473.357 11.4994 482.716 14.7712 489.409C18.089 496.196 25.7574 500.829 35.6315 498.155C39.4147 497.13 42.9274 494.269 46.0417 488.688C49.1901 483.046 51.6151 475.143 53.277 465.224C53.3219 464.957 53.3623 464.688 53.4059 464.418ZM824.168 6.05938C835.983 -1.99853 849.388 -1.4574 858.79 4.37872C868.24 10.245 873.845 21.874 868.242 34.1316C865.285 40.6008 859.487 44.5688 853.451 47.1541C847.383 49.7531 840.197 51.3319 833.147 52.5066C826.187 53.6664 818.503 54.5524 812.074 55.4852C812.017 55.4934 811.96 55.5023 811.903 55.5106C811.534 57.5972 811.196 59.789 810.893 62.0916C807.128 90.753 808.967 135.776 822.712 206.692C840.137 296.595 832.052 342.363 818.844 377.173C805.561 412.182 789.296 432.311 788.329 475.575C788.248 479.164 785.274 482.008 781.685 481.928C778.096 481.847 775.252 478.873 775.332 475.284C776.365 429.049 794.599 404.427 806.69 372.561C818.857 340.496 827.024 297.263 809.949 209.166C796.094 137.682 793.973 91.0761 798.004 60.3983C798.103 59.6406 798.208 58.8924 798.315 58.1531C797.335 58.4302 796.416 58.7225 795.56 59.035C789.128 61.3839 781.415 66.2011 772.681 73.2469C764.014 80.239 754.656 89.1666 744.936 99.3992C725.495 119.866 704.935 145.204 685.986 169.888C661.835 201.347 627.043 214.986 589.951 222.533C571.402 226.307 552.026 228.604 532.899 230.772C513.675 232.951 494.729 234.997 476.595 238.259C445.107 243.923 414.433 253.023 391.732 266.968C337.578 300.234 325.93 338.315 309.048 369.522C307.339 372.68 303.395 373.854 300.238 372.146C297.081 370.438 295.905 366.494 297.613 363.337C313.73 333.544 327.083 291.424 384.928 255.89C409.641 240.71 442.153 231.246 474.295 225.464C492.938 222.11 512.365 220.017 531.435 217.855C550.602 215.683 569.443 213.439 587.358 209.794C623.193 202.503 654.317 189.792 675.674 161.971C694.725 137.155 715.606 111.401 735.51 90.4461C745.463 79.9686 755.254 70.6036 764.519 63.1287C773.718 55.7074 782.723 49.8833 791.1 46.824C794.101 45.7284 797.484 44.8726 801.032 44.1619C806.122 23.8612 814.703 12.5142 824.168 6.05938ZM32.0993 52.9207C29.7707 52.0463 27.3629 52.2324 25.0876 53.369C20.4087 55.7062 16.1507 62.3432 17.7311 71.2996C19.6326 82.0744 23.3365 93.1244 31.0993 104.117C32.7035 106.389 34.4924 108.67 36.486 110.958C36.6113 110.586 36.7358 110.216 36.86 109.848C39.1748 102.999 41.2278 97.0384 42.6491 91.3533C45.4164 80.2843 45.5737 71.1028 40.1149 61.0252C37.4244 56.058 34.4647 53.809 32.0993 52.9207ZM851.933 15.4236C846.94 12.3242 839.094 11.6151 831.492 16.7996C825.957 20.5742 819.648 27.6124 815.152 41.9324C820.497 41.2137 825.749 40.5601 831.01 39.6834C837.794 38.5531 843.734 37.1737 848.333 35.2039C852.964 33.2204 855.376 31.0081 856.419 28.7274C858.815 23.4853 856.878 18.4931 851.933 15.4236Z" fill="black"/>
<path d="M782.438 496.435C786.024 496.283 789.055 499.067 789.207 502.654C791.2 549.65 794.041 654.956 789.17 697.175C783.14 749.437 779.073 777.884 751.94 824.215C737.9 848.186 727.353 857.825 713.845 870.103C700.722 882.031 684.428 896.79 657.994 931.377C646.269 946.718 634.019 957.635 619.042 965.395C604.153 973.111 586.958 977.502 565.668 980.371C502.031 988.947 482.8 958.464 482.8 942.929C482.8 934.529 482.729 925.711 487.051 915.979C491.347 906.305 499.635 896.398 514.782 884.343C521.775 878.779 527.563 872.62 531.098 866.684C534.673 860.681 535.471 855.767 534.265 852.001C533.091 848.337 529.398 843.846 519.57 840.045C509.742 836.243 494.677 833.519 472.655 832.927C453.6 832.416 439.287 834.407 429.198 837.819C419.037 841.255 413.855 845.872 411.729 850.117C409.73 854.106 409.802 859.038 413.1 864.94C416.473 870.976 423.079 877.634 433.24 883.896C451.615 895.22 461.028 908.484 465.437 921.089C469.799 933.558 469.056 944.796 468.16 951.758C466.613 963.793 457.338 972.257 444.483 977.454C431.61 982.657 413.9 985.194 392.36 984.929C361.443 985.086 298.927 979.395 250.104 956.83C246.845 955.324 245.424 951.461 246.93 948.203C248.436 944.944 252.298 943.523 255.557 945.029C301.932 966.463 362.291 972.082 392.297 971.929C392.336 971.929 392.375 971.93 392.413 971.93C413.133 972.194 428.953 969.709 439.611 965.401C450.307 961.077 454.57 955.523 455.267 950.1C456.05 944.012 456.564 935.099 453.165 925.382C449.813 915.799 442.446 904.839 426.42 894.963C415.082 887.975 406.551 879.871 401.751 871.282C396.877 862.56 395.742 853.004 400.106 844.294C404.341 835.839 413.091 829.542 425.033 825.504C437.048 821.441 453.01 819.394 473.005 819.931C495.718 820.542 512.46 823.356 524.26 827.921C536.058 832.485 543.811 839.188 546.645 848.036C549.446 856.781 546.815 865.699 542.267 873.336C537.679 881.04 530.65 888.33 522.878 894.515C508.496 905.961 502.019 914.304 498.932 921.255C495.871 928.148 495.8 934.329 495.8 942.929C495.8 947.466 504.63 975.48 563.932 967.488C584.479 964.719 600.03 960.605 613.062 953.852C626.006 947.145 636.853 937.63 647.666 923.482C674.732 888.069 691.628 872.73 705.101 860.484C718.188 848.588 727.642 839.977 740.722 817.644C766.466 773.687 770.286 747.422 776.256 695.684C780.985 654.703 778.226 550.542 776.219 503.205C776.067 499.618 778.851 496.587 782.438 496.435Z" fill="black"/>
<path d="M558.786 628.83C561.05 626.044 565.144 625.622 567.93 627.885C570.715 630.149 571.138 634.243 568.874 637.029C559.665 648.362 546.108 665.554 535.41 692.41C524.713 719.265 516.767 756.077 519.322 806.601C519.504 810.186 516.744 813.24 513.158 813.422C509.573 813.603 506.52 810.843 506.339 807.257C503.695 754.982 511.903 716.295 523.333 687.599C534.763 658.905 549.305 640.497 558.786 628.83ZM381.806 613.805C384.084 611.031 388.18 610.627 390.954 612.905C415.107 632.732 456.538 688.938 448.816 804.363C448.576 807.945 445.478 810.654 441.897 810.415C438.315 810.175 435.605 807.077 435.845 803.496C443.323 691.721 403.22 639.794 382.706 622.954C379.932 620.676 379.528 616.58 381.806 613.805Z" fill="black"/>
<path d="M199.615 547.468C256.2 541.204 292.27 547.4 314.452 559.232C336.989 571.253 344.931 589.013 344.83 603.973C344.806 607.563 341.876 610.453 338.286 610.429C334.697 610.405 331.806 607.475 331.83 603.885C331.896 594.013 326.837 580.572 308.333 570.702C289.474 560.642 256.46 554.255 201.045 560.39C197.477 560.785 194.264 558.212 193.869 554.644C193.475 551.076 196.048 547.863 199.615 547.468Z" fill="black"/>
<path d="M360.526 897.562C364.042 896.842 367.477 899.108 368.197 902.625C368.918 906.141 366.652 909.576 363.136 910.297C336.453 915.766 293.765 925.798 252.563 938.084C211.059 950.46 172.07 964.841 152.04 978.766C149.093 980.815 145.043 980.087 142.993 977.139C140.944 974.192 141.673 970.142 144.62 968.092C166.591 952.818 207.519 937.95 248.848 925.626C290.479 913.212 333.542 903.093 360.526 897.562ZM563.438 898.754C564.087 895.223 567.476 892.887 571.006 893.537C612.732 901.214 711.386 923.564 770.608 951.552C773.853 953.086 775.241 956.961 773.707 960.207C772.173 963.452 768.299 964.84 765.053 963.306C707.474 936.094 610.261 913.978 568.654 906.322C565.123 905.672 562.788 902.284 563.438 898.754ZM53.5041 929.076C205.003 855.938 315.011 846.599 352.178 851.485C355.737 851.953 358.243 855.218 357.775 858.777C357.307 862.336 354.043 864.841 350.484 864.374C316.65 859.926 209.257 868.32 59.1565 940.783C55.9237 942.344 52.0376 940.988 50.4768 937.756C48.9161 934.523 50.2715 930.637 53.5041 929.076ZM273.33 906.429V893.642L272.345 878.862C272.106 875.28 274.816 872.183 278.398 871.944C281.979 871.705 285.077 874.415 285.316 877.997L286.316 892.997C286.325 893.141 286.33 893.285 286.33 893.429V906.429C286.33 910.019 283.42 912.929 279.83 912.929C276.24 912.929 273.33 910.019 273.33 906.429ZM576.578 856.934C633.272 859.102 767.048 869.445 846.724 893.712C850.158 894.757 852.094 898.389 851.048 901.823C850.002 905.257 846.371 907.193 842.937 906.147C765.012 882.414 632.722 872.09 576.082 869.924C572.495 869.787 569.698 866.768 569.835 863.181C569.972 859.594 572.991 856.797 576.578 856.934ZM91.342 570.429C94.581 570.435 97.3211 572.825 97.7678 576.033C100.802 597.832 110.889 628.459 134.009 653.107C156.926 677.539 193.131 696.63 249.635 694.932C283.859 693.904 320.288 678.163 331.111 642.54C332.154 639.105 335.785 637.166 339.22 638.21C342.655 639.253 344.593 642.884 343.55 646.319C330.372 689.695 286.801 706.822 250.026 707.926C190.03 709.729 150.151 689.319 124.527 662.002C111.113 647.701 101.739 631.653 95.3908 616.203C95.1135 633.061 95.9094 650.521 99.0588 661.07C101.401 668.916 103.801 675.218 107.59 681.245C111.37 687.256 116.725 693.295 125.293 700.272C142.652 714.409 172.393 731.784 226.835 760.166C243.494 768.85 281.958 793.321 282.829 840.81C282.895 844.399 280.039 847.363 276.449 847.428C272.86 847.494 269.897 844.638 269.831 841.049C269.103 801.338 236.885 780.065 220.825 771.693C166.564 743.405 135.634 725.459 117.084 710.352C107.698 702.708 101.289 695.645 96.5852 688.165C91.8915 680.7 89.0892 673.12 86.6018 664.789C82.673 651.629 82.0552 631.282 82.4299 613.889C82.8093 596.28 84.2486 580.541 84.8957 576.01L84.9455 575.712C85.5265 572.657 88.2042 570.424 91.342 570.429Z" fill="black"/>
<path d="M434.43 381.729C437.302 379.575 441.377 380.157 443.53 383.029C444.995 384.981 450.165 390.951 454.853 402.846C459.507 414.657 463.625 432.086 463.83 457.377C463.832 457.556 463.825 457.736 463.812 457.916C463.56 461.277 463.231 465.796 463.619 470.381C464.017 475.072 465.107 478.964 467.03 481.529C469.184 484.401 468.602 488.476 465.731 490.63C462.859 492.783 458.784 492.201 456.63 489.33C452.554 483.895 451.144 477.12 450.666 471.478C450.193 465.895 450.577 460.564 450.826 457.234C450.607 433.464 446.74 417.717 442.758 407.613C438.796 397.559 434.666 392.877 433.13 390.83C430.976 387.958 431.558 383.883 434.43 381.729ZM343.146 320.509C345.311 317.646 349.387 317.08 352.25 319.245C361.571 326.292 368.202 327.758 377.945 331.562C387.839 335.425 398.936 341.126 414.809 356.218C417.41 358.692 417.514 362.806 415.041 365.408C412.568 368.009 408.453 368.114 405.852 365.64C391.225 351.733 381.571 346.933 373.216 343.672C364.709 340.35 355.59 338.067 344.41 329.614C341.547 327.449 340.981 323.373 343.146 320.509Z" fill="black"/>
<path d="M583.174 320.248C586.312 318.504 590.269 319.635 592.012 322.773C593.755 325.911 592.625 329.868 589.487 331.611C581.498 336.049 552.862 358.248 545.712 395.166C544.896 399.379 544.74 404.13 544.3 411.39C543.872 418.453 543.188 427.21 541.236 438.534C537.178 462.07 524.417 478.097 518.426 488.236C516.6 491.327 512.614 492.351 509.524 490.525C506.433 488.699 505.408 484.713 507.235 481.623C514.243 469.762 524.897 456.788 528.425 436.325C530.266 425.649 530.911 417.412 531.323 410.603C531.724 403.992 531.922 397.992 532.948 392.693C541.076 350.725 573.163 325.81 583.174 320.248Z" fill="black"/>
<path d="M617.712 649.941C621.296 650.152 624.03 653.228 623.82 656.811C622.801 674.12 622.963 689.807 633.298 701.025C643.625 712.234 666.065 720.918 715.439 717.941C719.022 717.725 722.102 720.455 722.319 724.038C722.535 727.621 719.805 730.701 716.222 730.918C666.095 733.94 638.286 725.625 623.738 709.834C609.197 694.051 609.859 672.739 610.841 656.048C611.052 652.464 614.128 649.73 617.712 649.941ZM772.93 98.8122C774.43 96.5733 777.156 95.4914 779.782 96.0934C782.409 96.6956 784.392 98.8564 784.767 101.525V101.526C784.767 101.527 784.768 101.528 784.768 101.529C784.768 101.531 784.768 101.534 784.769 101.538C784.77 101.546 784.772 101.558 784.774 101.573C784.778 101.603 784.784 101.648 784.792 101.706C784.808 101.822 784.832 101.993 784.862 102.214C784.923 102.654 785.011 103.293 785.118 104.089C785.333 105.68 785.628 107.905 785.949 110.439C786.588 115.481 787.342 121.844 787.765 126.886C788.592 136.755 789.406 149.417 790.171 163.06C792.09 197.278 796.343 234.872 795.152 270.628C793.953 306.591 787.269 341.881 766.703 372.088C750.645 395.673 723.824 431.483 684.643 450.29C674.507 455.155 663.156 457.936 651.909 460.27C640.42 462.655 629.2 464.551 618.135 467.63C596.475 473.656 577.067 483.8 564.675 509.273C547.062 545.478 555.227 600.631 599.761 623.128C599.808 623.151 599.855 623.176 599.902 623.201C607.135 627.079 621.577 631.927 638.701 634.343C655.784 636.754 674.785 636.636 691.317 631.25C712.044 624.496 721.854 613.848 726.767 604.022C731.819 593.918 732.083 583.983 732.335 577.67C732.479 574.083 735.503 571.291 739.09 571.434C742.677 571.578 745.469 574.602 745.325 578.189C745.078 584.376 744.841 596.941 738.394 609.837C731.807 623.011 719.117 635.864 695.344 643.61C676.275 649.823 655.11 649.788 636.884 647.215C618.762 644.658 602.801 639.481 593.851 634.706C541.429 608.188 533.113 544.435 552.986 503.586C567.593 473.559 590.935 461.704 614.651 455.105C626.273 451.871 638.397 449.798 649.267 447.542C660.379 445.235 670.404 442.705 679.018 438.57C714.837 421.377 740.016 388.185 755.957 364.771C774.559 337.45 780.999 304.98 782.158 270.195C783.324 235.202 779.169 199.057 777.192 163.788C776.429 150.187 775.622 137.663 774.81 127.972C774.608 125.567 774.323 122.807 774.008 120.019C761.394 137.589 744.182 159.757 725.467 181.25C701.446 208.836 674.466 235.879 651.287 250.434C606.195 278.75 552.272 301.324 530.122 307.677C530.094 307.685 530.066 307.693 530.037 307.701C495.712 317.045 463.542 341.935 437.052 369.934C410.644 397.847 390.47 428.224 380.049 447.518C378.343 450.677 374.4 451.855 371.241 450.149C368.083 448.443 366.906 444.499 368.612 441.34C379.524 421.135 400.35 389.812 427.609 361C454.765 332.295 488.897 305.454 526.538 295.181L527.539 294.889C549.037 288.511 600.888 266.731 644.373 239.424C665.828 225.952 691.762 200.161 715.663 172.713C739.454 145.391 760.752 116.99 772.93 98.8122ZM673.534 558.325C703.752 550.99 739.185 552.354 762.553 554.969C766.12 555.369 768.689 558.585 768.29 562.152C767.891 565.719 764.675 568.288 761.108 567.889C738.309 565.338 704.641 564.152 676.601 570.959C662.598 574.358 650.507 579.631 641.849 587.263C633.376 594.732 627.94 604.655 627.323 618.224C627.16 621.81 624.121 624.585 620.535 624.423C616.949 624.259 614.174 621.221 614.337 617.634C615.12 600.404 622.239 587.219 633.252 577.511C644.08 567.967 658.408 561.997 673.534 558.325Z" fill="black"/>
<path d="M747.93 690.793C748.558 687.258 751.933 684.902 755.467 685.53C759.001 686.158 761.357 689.532 760.73 693.066C757.286 712.46 738.746 755.579 691.654 778.285C662.972 792.114 635.758 797.011 614.095 803.123C592.157 809.312 575.481 816.746 563.8 834.941C561.861 837.962 557.839 838.838 554.819 836.899C551.798 834.96 550.921 830.938 552.861 827.918C567.18 805.613 587.754 797.047 610.566 790.611C633.653 784.098 658.689 779.745 686.007 766.574C728.514 746.079 745.04 707.066 747.93 690.793Z" fill="black"/>
<path d="M655.964 290.866C666.035 290.846 675.74 293.244 684.9 296.385C693.926 299.48 703.089 303.555 711.393 306.879C728.71 313.812 743.301 317.864 757.298 311.943C760.604 310.544 764.418 312.091 765.817 315.397C767.215 318.703 765.669 322.517 762.363 323.915C743.007 332.104 723.779 325.841 706.561 318.948C697.597 315.359 689.313 311.642 680.683 308.683C672.186 305.77 664.025 303.85 655.989 303.866C633.609 303.908 615.682 314.02 607.578 319.74C604.646 321.81 600.59 321.111 598.52 318.178C596.45 315.245 597.15 311.19 600.082 309.119C609.306 302.609 629.847 290.915 655.964 290.866Z" fill="black"/>
<path d="M51.0832 614.929C51.0832 611.34 53.9933 608.429 57.5832 608.429C61.1729 608.43 64.0832 611.34 64.0832 614.929C64.0832 639.532 61.2673 696.946 64.0666 736.976C66.44 770.915 81.6719 797.822 100.001 819.692C118.598 841.882 139.408 857.929 153.825 871.735C156.418 874.218 156.507 878.332 154.025 880.924C151.542 883.517 147.428 883.606 144.835 881.124C131.753 868.596 109.189 850.893 90.0373 828.042C70.618 804.871 53.7254 775.443 51.0988 737.882C48.2615 697.309 51.0832 638.326 51.0832 614.929Z" fill="black"/>
<path d="M174.563 900.011C177.003 897.378 181.115 897.222 183.748 899.662L183.747 899.661C183.748 899.661 183.749 899.663 183.75 899.664C183.753 899.666 183.759 899.671 183.766 899.677C183.78 899.691 183.803 899.712 183.833 899.74C183.894 899.796 183.988 899.881 184.11 899.993C184.354 900.216 184.715 900.544 185.169 900.951C186.08 901.767 187.361 902.898 188.838 904.154C191.855 906.72 195.456 909.607 198.341 911.459C201.408 913.427 205.242 915.588 208.381 917.29C209.936 918.132 211.291 918.847 212.256 919.35C212.738 919.601 213.121 919.799 213.382 919.933C213.513 920 213.613 920.052 213.679 920.086C213.712 920.102 213.736 920.115 213.752 920.123C213.76 920.127 213.765 920.13 213.769 920.131L213.773 920.133L214.067 920.293C217.05 922.002 218.201 925.771 216.626 928.872C215.001 932.073 211.089 933.35 207.888 931.725L210.83 925.929C207.888 931.725 207.887 931.725 207.887 931.725V931.724L207.885 931.723C207.883 931.722 207.881 931.722 207.878 931.72C207.873 931.717 207.864 931.713 207.854 931.708C207.833 931.697 207.804 931.682 207.766 931.663C207.69 931.624 207.58 931.568 207.44 931.496C207.158 931.351 206.751 931.141 206.244 930.877C205.231 930.348 203.813 929.601 202.186 928.718C198.961 926.97 194.794 924.63 191.32 922.4C187.663 920.053 183.514 916.691 180.416 914.056C178.836 912.712 177.469 911.505 176.495 910.633C176.008 910.197 175.618 909.843 175.347 909.595C175.211 909.472 175.105 909.375 175.032 909.307C174.995 909.274 174.967 909.248 174.947 909.229C174.937 909.22 174.929 909.212 174.923 909.207C174.92 909.204 174.918 909.202 174.916 909.201L174.913 909.198C174.913 909.198 174.912 909.197 179.33 904.429L174.912 909.197C172.279 906.757 172.123 902.644 174.563 900.011Z" fill="black"/>
</svg>
